<svg xmlns="http://www.w3.org/2000/svg" viewBox="0 0 562.06 123.06"><defs><style>.cls-1{fill:#f3705e;}.cls-2{fill:#99d6d5;}.cls-3{fill:#009894;}.cls-4{fill:#fff5c0;}.cls-5{fill:#515050;}</style></defs><title>Asset 8</title><g id="Layer_2" data-name="Layer 2"><g id="Layer_1-2" data-name="Layer 1"><path class="cls-1" d="M45,47.07c12.55.16,20.92,9.12,20.92,9.12a28.58,28.58,0,0,1,7.73,20.71c-.08,1.52-.94,13.4-11.34,20.84-12.33,8.81-26.33,3-26.9,2.75-14-6.11-16.22-21-16.32-21.77a17.32,17.32,0,0,0,12.69,8.57,14.54,14.54,0,0,0,7.68,5.57A19.11,19.11,0,0,0,63.17,68.5C59.67,58.08,48.83,55.86,47.9,55.69c-5.81-1.08-14.21.1-18.15,6.06-1.69,2.55-3.88,8-1,11.72A8.16,8.16,0,0,0,38.08,76c4-1.71,4.58-6.39,4.73-7.55a12.37,12.37,0,0,0-3.14-9.51,14.49,14.49,0,0,1,3-.84,14.82,14.82,0,0,1,6.3.37A17,17,0,0,1,40.44,83.8a16.5,16.5,0,0,1-18.12-5.52c-5.32-7.14-1.29-16-.52-17.72A25.1,25.1,0,0,1,34.3,49.16a29.52,29.52,0,0,1,5.14-1.6A30,30,0,0,1,45,47.07Z"/><path class="cls-1" d="M66.51,21.62a18.38,18.38,0,0,0-9.29-17.8A18.83,18.83,0,0,0,35.75,6.18c-6.3,5.54-8.08,14.86-5,21.25a15.7,15.7,0,0,0,5,5.69c7.37,5.62,14.21,4,21.66,5.85C68.3,41.6,77,50.57,81.16,59.36c7.16,15.18.82,29.4,0,31.61-4.16,10.89-14.34,19.35-26,21.86a38.89,38.89,0,0,1-33.27-8.75C8.07,91.88,9.06,74.92,9.23,72.72,10.65,54.67,24.49,45,26.28,43.8a9.55,9.55,0,0,1,3.26,1.66,9.37,9.37,0,0,1,2,2.19,19.44,19.44,0,0,1,8.94-3A37.32,37.32,0,0,0,29.26,35c-1-.57-2.05-1.07-3-1.5A45.56,45.56,0,0,0,6.41,51,44,44,0,0,0,0,75.21c.36,13.49,4.9,26.9,15.29,35.83a49.53,49.53,0,0,0,37.3,11.72,46.79,46.79,0,0,0,33.12-20.13c5.72-8.62,9.09-18.84,8.67-29.09-.15-3.62-.84-17-10.85-28.36-2-2.26-12.71-14.45-28.07-15.89-.24,0-1.43-.08-3.07-.25a42.68,42.68,0,0,1-4.86-.68c-1.46-.34-4.93-1.16-6.88-4.17a8.72,8.72,0,0,1-.55-8.4,9.07,9.07,0,0,1,10.57-4.45,9.36,9.36,0,0,1,6.51,8.25,26.66,26.66,0,0,1,9.29,2Z"/><path class="cls-2" d="M162.59,47.07c12.55.16,20.92,9.12,20.92,9.12a28.58,28.58,0,0,1,7.73,20.71c-.08,1.52-.94,13.4-11.34,20.84-12.33,8.81-26.33,3-26.9,2.75-14-6.11-16.22-21-16.32-21.77a17.32,17.32,0,0,0,12.69,8.57A14.54,14.54,0,0,0,157,92.84,19.11,19.11,0,0,0,180.8,68.5c-3.5-10.42-14.34-12.64-15.27-12.81-5.81-1.08-14.21.1-18.15,6.06-1.69,2.55-3.88,8-1,11.72A8.16,8.16,0,0,0,155.71,76c4-1.71,4.58-6.39,4.73-7.55a12.37,12.37,0,0,0-3.14-9.51,14.49,14.49,0,0,1,3-.84,14.82,14.82,0,0,1,6.3.37,17,17,0,0,1-8.56,25.37A16.5,16.5,0,0,1,140,78.28c-5.32-7.14-1.29-16-.52-17.72a25.1,25.1,0,0,1,12.49-11.4,29.52,29.52,0,0,1,5.14-1.6A30,30,0,0,1,162.59,47.07Z"/><path class="cls-2" d="M184.14,21.62a18.38,18.38,0,0,0-9.29-17.8,18.83,18.83,0,0,0-21.46,2.36c-6.3,5.54-8.08,14.86-5,21.25a15.7,15.7,0,0,0,5,5.69c7.37,5.62,14.21,4,21.66,5.85,10.79,2.63,19.51,11.61,23.65,20.4,7.16,15.18.82,29.4,0,31.61-4.16,10.89-14.34,19.35-26,21.86a38.89,38.89,0,0,1-33.27-8.75c-13.78-12.19-12.79-29.16-12.62-31.35,1.41-18.06,15.25-27.71,17-28.92a9.55,9.55,0,0,1,3.26,1.66,9.37,9.37,0,0,1,2,2.19,19.44,19.44,0,0,1,8.94-3A37.32,37.32,0,0,0,146.89,35c-1-.57-2.05-1.07-3-1.5A45.56,45.56,0,0,0,124,51a44,44,0,0,0-6.39,24.26c.36,13.49,4.9,26.9,15.29,35.83a49.53,49.53,0,0,0,37.3,11.72,46.79,46.79,0,0,0,33.12-20.13c5.72-8.62,9.09-18.84,8.67-29.09-.15-3.62-.84-17-10.85-28.36-2-2.26-12.71-14.45-28.07-15.89-.24,0-1.43-.08-3.07-.25a42.68,42.68,0,0,1-4.86-.68c-1.46-.34-4.93-1.16-6.88-4.17a8.72,8.72,0,0,1-.55-8.4,9.07,9.07,0,0,1,10.57-4.45,9.36,9.36,0,0,1,6.51,8.25,26.66,26.66,0,0,1,9.29,2Z"/><path class="cls-3" d="M280.48,47.07c12.55.16,20.92,9.12,20.92,9.12a28.58,28.58,0,0,1,7.73,20.71c-.08,1.52-.94,13.4-11.34,20.84-12.33,8.81-26.33,3-26.9,2.75-14-6.11-16.22-21-16.32-21.77a17.32,17.32,0,0,0,12.69,8.57,14.54,14.54,0,0,0,7.68,5.57A19.11,19.11,0,0,0,298.7,68.5c-3.5-10.42-14.34-12.64-15.27-12.81-5.81-1.08-14.21.1-18.15,6.06-1.69,2.55-3.88,8-1,11.72A8.16,8.16,0,0,0,273.6,76c4-1.71,4.58-6.39,4.73-7.55a12.37,12.37,0,0,0-3.14-9.51,14.49,14.49,0,0,1,3-.84,14.82,14.82,0,0,1,6.3.37A17,17,0,0,1,276,83.8a16.5,16.5,0,0,1-18.12-5.52c-5.32-7.14-1.29-16-.52-17.72a25.1,25.1,0,0,1,12.49-11.4,29.52,29.52,0,0,1,5.14-1.6A30,30,0,0,1,280.48,47.07Z"/><path class="cls-3" d="M302,21.62a18.38,18.38,0,0,0-9.29-17.8,18.83,18.83,0,0,0-21.46,2.36c-6.3,5.54-8.08,14.86-5,21.25a15.7,15.7,0,0,0,5,5.69c7.37,5.62,14.21,4,21.66,5.85,10.79,2.63,19.51,11.61,23.65,20.4,7.16,15.18.82,29.4,0,31.61-4.16,10.89-14.34,19.35-26,21.86a38.89,38.89,0,0,1-33.27-8.75c-13.78-12.19-12.79-29.16-12.62-31.35C246.17,54.67,260,45,261.81,43.8a9.55,9.55,0,0,1,3.26,1.66,9.37,9.37,0,0,1,2,2.19,19.44,19.44,0,0,1,8.94-3A37.32,37.32,0,0,0,264.79,35c-1-.57-2.05-1.07-3-1.5A45.56,45.56,0,0,0,241.93,51a44,44,0,0,0-6.39,24.26c.36,13.49,4.9,26.9,15.29,35.83a49.53,49.53,0,0,0,37.3,11.72,46.79,46.79,0,0,0,33.12-20.13c5.72-8.62,9.09-18.84,8.67-29.09-.15-3.62-.84-17-10.85-28.36-2-2.26-12.71-14.45-28.07-15.89-.24,0-1.43-.08-3.07-.25a42.68,42.68,0,0,1-4.86-.68c-1.46-.34-4.93-1.16-6.88-4.17a8.72,8.72,0,0,1-.55-8.4,9.07,9.07,0,0,1,10.57-4.45,9.36,9.36,0,0,1,6.51,8.25,26.66,26.66,0,0,1,9.29,2Z"/><path class="cls-4" d="M396.53,45.57c12.55.16,20.92,9.12,20.92,9.12a28.58,28.58,0,0,1,7.73,20.71c-.08,1.52-.94,13.4-11.34,20.84-12.33,8.81-26.33,3-26.9,2.75-14-6.11-16.22-21-16.32-21.77a17.32,17.32,0,0,0,12.69,8.57A14.54,14.54,0,0,0,391,91.34,19.11,19.11,0,0,0,414.74,67c-3.5-10.42-14.34-12.64-15.27-12.81-5.81-1.08-14.21.1-18.15,6.06-1.69,2.55-3.88,8-1,11.72a8.16,8.16,0,0,0,9.32,2.49c4-1.71,4.58-6.39,4.73-7.55a12.37,12.37,0,0,0-3.14-9.51,14.49,14.49,0,0,1,3-.84,14.82,14.82,0,0,1,6.3.37A17,17,0,0,1,392,82.31a16.5,16.5,0,0,1-18.12-5.52c-5.32-7.14-1.29-16-.52-17.72a25.1,25.1,0,0,1,12.49-11.4,29.52,29.52,0,0,1,5.14-1.6A30,30,0,0,1,396.53,45.57Z"/><path class="cls-4" d="M418.08,20.13a18.38,18.38,0,0,0-9.29-17.8,18.83,18.83,0,0,0-21.46,2.36c-6.3,5.54-8.08,14.86-5,21.25a15.7,15.7,0,0,0,5,5.69c7.37,5.62,14.21,4,21.66,5.85,10.79,2.63,19.51,11.61,23.65,20.4,7.16,15.18.82,29.4,0,31.61-4.16,10.89-14.34,19.35-26,21.86a38.89,38.89,0,0,1-33.27-8.75c-13.78-12.19-12.79-29.16-12.62-31.35,1.41-18.06,15.25-27.71,17-28.92A9.55,9.55,0,0,1,381.11,44a9.37,9.37,0,0,1,2,2.19,19.44,19.44,0,0,1,8.94-3,37.32,37.32,0,0,0-11.24-9.66c-1-.57-2.05-1.07-3-1.5A45.56,45.56,0,0,0,358,49.46a44,44,0,0,0-6.39,24.26c.36,13.49,4.9,26.9,15.29,35.83a49.53,49.53,0,0,0,37.3,11.72,46.79,46.79,0,0,0,33.12-20.13C443,92.52,446.4,82.29,446,72c-.15-3.62-.84-17-10.85-28.36-2-2.26-12.71-14.45-28.07-15.89-.24,0-1.43-.08-3.07-.25a42.68,42.68,0,0,1-4.86-.68c-1.46-.34-4.93-1.16-6.88-4.17a8.72,8.72,0,0,1-.55-8.4,9.07,9.07,0,0,1,10.57-4.45,9.36,9.36,0,0,1,6.51,8.25,26.66,26.66,0,0,1,9.29,2Z"/><path class="cls-5" d="M512.57,45.57c12.55.16,20.92,9.12,20.92,9.12a28.58,28.58,0,0,1,7.73,20.71c-.08,1.52-.94,13.4-11.34,20.84-12.33,8.81-26.33,3-26.9,2.75-14-6.11-16.22-21-16.32-21.77a17.32,17.32,0,0,0,12.69,8.57A14.54,14.54,0,0,0,507,91.34,19.11,19.11,0,0,0,530.79,67c-3.5-10.42-14.34-12.64-15.27-12.81-5.81-1.08-14.21.1-18.15,6.06-1.69,2.55-3.88,8-1,11.72a8.16,8.16,0,0,0,9.32,2.49c4-1.71,4.58-6.39,4.73-7.55a12.37,12.37,0,0,0-3.14-9.51,14.49,14.49,0,0,1,3-.84,14.82,14.82,0,0,1,6.3.37,17,17,0,0,1-8.56,25.37,16.5,16.5,0,0,1-18.12-5.52c-5.32-7.14-1.29-16-.52-17.72a25.1,25.1,0,0,1,12.49-11.4,29.52,29.52,0,0,1,5.14-1.6A30,30,0,0,1,512.57,45.57Z"/><path class="cls-5" d="M534.13,20.13a18.38,18.38,0,0,0-9.29-17.8,18.83,18.83,0,0,0-21.46,2.36c-6.3,5.54-8.08,14.86-5,21.25a15.7,15.7,0,0,0,5,5.69c7.37,5.62,14.21,4,21.66,5.85,10.79,2.63,19.51,11.61,23.65,20.4,7.16,15.18.82,29.4,0,31.61-4.16,10.89-14.34,19.35-26,21.86a38.89,38.89,0,0,1-33.27-8.75c-13.78-12.19-12.79-29.16-12.62-31.35,1.41-18.06,15.25-27.71,17-28.92A9.55,9.55,0,0,1,497.16,44a9.37,9.37,0,0,1,2,2.19,19.44,19.44,0,0,1,8.94-3,37.32,37.32,0,0,0-11.24-9.66c-1-.57-2.05-1.07-3-1.5A45.56,45.56,0,0,0,474,49.46a44,44,0,0,0-6.39,24.26c.36,13.49,4.9,26.9,15.29,35.83a49.53,49.53,0,0,0,37.3,11.72,46.79,46.79,0,0,0,33.12-20.13c5.72-8.62,9.09-18.84,8.67-29.09-.15-3.62-.84-17-10.85-28.36-2-2.26-12.71-14.45-28.07-15.89-.24,0-1.43-.08-3.07-.25a42.68,42.68,0,0,1-4.86-.68c-1.46-.34-4.93-1.16-6.88-4.17a8.72,8.72,0,0,1-.55-8.4,9.07,9.07,0,0,1,10.57-4.45,9.36,9.36,0,0,1,6.51,8.25,26.66,26.66,0,0,1,9.29,2Z"/></g></g></svg>